<svg width="14" height="14" viewBox="0 0 14 14" fill="none" xmlns="http://www.w3.org/2000/svg">
<path fill-rule="evenodd" clip-rule="evenodd" d="M4.1328 8.50198L6.07093 6.69636L5.31467 6L3 8.15231V8.85065L5.31573 10.998L6.06987 10.2997L4.1328 8.50198ZM7.91733 6.70526L8.664 6.00494L11 8.1533V8.85362L8.664 11L7.91733 10.2997L9.86933 8.50198L7.91733 6.70526Z" fill="black"/>
<path fill-rule="evenodd" clip-rule="evenodd" d="M13.5 0H0.5L0 0.468468V3.27928L0.5 3.74775H1V13.5315L1.5 14H12.5L13 13.5315V3.74775H13.5L14 3.27928V0.468468L13.5 0ZM12.5 2.81081H1V0.936937H13V2.81081H12.5ZM2 13.0631V3.74775H12V13.0631H2Z" fill="black"/>
</svg>
